<svg xmlns="http://www.w3.org/2000/svg" width="606" height="183" fill="none"><circle cx="1.2" cy="181" r="1" fill="#22222A"/><circle cx="11.2" cy="171" r="1" fill="#3D43F5"/><circle cx="21.2" cy="171" r="1" fill="#22222A"/><circle cx="21.2" cy="161" r="1" fill="#22222A"/><circle cx="41.2" cy="151" r="1" fill="#22222A"/><circle cx="51.2" cy="151" r="1" fill="#22222A"/><circle cx="81.2" cy="171" r="1" fill="#22222A"/><circle cx="81.2" cy="181" r="1" fill="#22222A"/><circle cx="92.2" cy="181" r="1" fill="#22222A"/><circle cx="91.2" cy="161" r="1" fill="#22222A"/><circle cx="101.2" cy="161" r="1" fill="#22222A"/><circle cx="111.2" cy="161" r="1" fill="#22222A"/><circle cx="111.2" cy="151" r="1" fill="#22222A"/><circle cx="121.2" cy="171" r="1" fill="#22222A"/><circle cx="131.2" cy="161" r="1" fill="#2D2D39"/><circle cx="141.2" cy="151" r="1" fill="#22222A"/><circle cx="141.2" cy="141" r="1" fill="#22222A"/><circle cx="131.2" cy="131" r="1" fill="#22222A"/><circle cx="121.2" cy="121" r="1" fill="#22222A"/><circle cx="111.2" cy="111" r="1" fill="#3D43F5"/><circle cx="141.2" cy="121" r="1" fill="#2D2D39"/><circle cx="141.2" cy="110" r="1" fill="#22222A"/><circle cx="141.2" cy="101" r="1" fill="#22222A"/><circle cx="151.2" cy="111" r="1" fill="#22222A"/><circle cx="181.2" cy="151" r="1" fill="#3D43F5"/><circle cx="191.2" cy="151" r="1" fill="#22222A"/><circle cx="191.2" cy="161" r="1" fill="#22222A"/><circle cx="191.2" cy="171" r="1" fill="#22222A"/><circle cx="201.2" cy="171" r="1" fill="#22222A"/><circle cx="201.2" cy="161" r="1" fill="#22222A"/><circle cx="201.2" cy="141" r="1" fill="#22222A"/><circle cx="201.2" cy="131" r="1" fill="#22222A"/><circle cx="211.2" cy="141" r="1" fill="#22222A"/><circle cx="221.2" cy="141" r="1" fill="#22222A"/><circle cx="221.2" cy="121" r="1" fill="#22222A"/><circle cx="231.2" cy="121" r="1" fill="#22222A"/><circle cx="221.2" cy="111" r="1" fill="#22222A"/><circle cx="201.2" cy="111" r="1" fill="#22222A"/><circle cx="201.2" cy="101" r="1" fill="#22222A"/><circle cx="221.2" cy="101" r="1" fill="#22222A"/><circle cx="231.2" cy="91" r="1" fill="#22222A"/><circle cx="231.2" cy="81" r="1" fill="#22222A"/><circle cx="231.2" cy="71" r="1" fill="#3D43F5"/><circle cx="241.2" cy="61" r="1" fill="#22222A"/><circle cx="251.2" cy="61" r="1" fill="#22222A"/><circle cx="241.2" cy="51" r="1" fill="#22222A"/><circle cx="230.2" cy="41" r="1" fill="#22222A"/><circle cx="231.2" cy="32" r="1" fill="#22222A"/><circle cx="241.2" cy="21" r="1" fill="#22222A"/><circle cx="241.2" cy="11" r="1" fill="#22222A"/><circle cx="251.2" cy="21" r="1" fill="#22222A"/><circle cx="251.2" cy="31" r="1" fill="#22222A"/><circle cx="261.2" cy="31" r="1" fill="#22222A"/><circle cx="261.2" cy="21" r="1" fill="#22222A"/><circle cx="261.2" cy="61" r="1" fill="#22222A"/><circle cx="271.2" cy="61" r="1" fill="#22222A"/><circle cx="303.2" cy="41" r="1" fill="#22222A"/><circle cx="313.2" cy="51" r="1" fill="#22222A"/><circle cx="324.2" cy="51" r="1" fill="#22222A"/><circle cx="353.2" cy="31" r="1" fill="#22222A"/><circle cx="363.2" cy="41" r="1" fill="#22222A"/><circle cx="373.2" cy="51" r="1" fill="#22222A"/><circle cx="353.2" cy="61" r="1" fill="#22222A"/><circle cx="343.2" cy="60" r="1" fill="#22222A"/><circle cx="353.2" cy="71" r="1" fill="#22222A"/><circle cx="363.2" cy="81" r="1" fill="#22222A"/><circle cx="373.2" cy="81" r="1" fill="#22222A"/><circle cx="383.2" cy="81" r="1" fill="#22222A"/><circle cx="373.2" cy="91" r="1" fill="#22222A"/><circle cx="374.2" cy="101" r="1" fill="#22222A"/><circle cx="383.2" cy="101" r="1" fill="#22222A"/><circle cx="393.2" cy="100" r="1" fill="#2D2D39"/><circle cx="404.2" cy="101" r="1" fill="#3D43F5"/><circle cx="413.2" cy="91" r="1" fill="#22222A"/><circle cx="424.2" cy="91" r="1" fill="#22222A"/><circle cx="424.2" cy="101" r="1" fill="#22222A"/><circle cx="383.2" cy="111" r="1" fill="#22222A"/><circle cx="383.2" cy="122" r="1" fill="#22222A"/><circle cx="394.2" cy="141" r="1" fill="#3D43F5"/><circle cx="383.2" cy="151" r="1" fill="#22222A"/><circle cx="373.2" cy="151" r="1" fill="#22222A"/><circle cx="373.2" cy="161" r="1" fill="#22222A"/><circle cx="373.2" cy="172" r="1" fill="#22222A"/><circle cx="403.2" cy="171" r="1" fill="#22222A"/><circle cx="414.2" cy="171" r="1" fill="#22222A"/><circle cx="413.2" cy="161" r="1" fill="#22222A"/><circle cx="404.2" cy="161" r="1" fill="#22222A"/><circle cx="414.2" cy="151" r="1" fill="#22222A"/><circle cx="403.2" cy="141" r="1" fill="#22222A"/><circle cx="424.2" cy="152" r="1" fill="#22222A"/><circle cx="454.2" cy="111" r="1" fill="#22222A"/><circle cx="463.2" cy="102" r="1" fill="#22222A"/><circle cx="463.2" cy="112" r="1" fill="#22222A"/><circle cx="463.2" cy="121" r="1" fill="#22222A"/><circle cx="473.2" cy="131" r="1" fill="#22222A"/><circle cx="484.2" cy="122" r="1" fill="#22222A"/><circle cx="494.2" cy="111" r="1" fill="#22222A"/><circle cx="494.2" cy="91" r="1" fill="#3D43F5"/><circle cx="463.2" cy="141" r="1" fill="#22222A"/><circle cx="464.2" cy="151" r="1" fill="#3D43F5"/><circle cx="473.2" cy="162" r="1" fill="#22222A"/><circle cx="493.2" cy="162" r="1" fill="#22222A"/><circle cx="503.2" cy="161" r="1" fill="#22222A"/><circle cx="513.2" cy="162" r="1" fill="#22222A"/><circle cx="524.2" cy="172" r="1" fill="#22222A"/><circle cx="525.2" cy="181" r="1" fill="#22222A"/><circle cx="513.2" cy="181" r="1" fill="#22222A"/><circle cx="554.2" cy="152" r="1" fill="#22222A"/><circle cx="564.2" cy="151" r="1" fill="#22222A"/><circle cx="583.2" cy="161" r="1" fill="#22222A"/><circle cx="584.2" cy="171" r="1" fill="#3D43F5"/><circle cx="595.2" cy="171" r="1" fill="#22222A"/><circle cx="604.2" cy="181" r="1" fill="#22222A"/><circle cx="494.2" cy="151" r="1" fill="#22222A"/><circle cx="484.2" cy="172" r="1" fill="#22222A"/><circle cx="483.2" cy="182" r="1" fill="#22222A"/><circle cx="473.2" cy="181" r="1" fill="#22222A"/><circle cx="464.2" cy="181" r="1" fill="#22222A"/><circle cx="383.2" cy="61" r="1" fill="#3D43F5"/><circle cx="394.2" cy="70" r="1" fill="#22222A"/><circle cx="414.2" cy="72" r="1" fill="#22222A"/><circle cx="413.2" cy="61" r="1" fill="#22222A"/><circle cx="324.2" cy="41" r="1" fill="#2D2D39"/><circle cx="324.2" cy="31" r="1" fill="#22222A"/><circle cx="324.2" cy="21" r="1" fill="#3D43F5"/><circle cx="333.2" cy="11" r="1" fill="#22222A"/><circle cx="334.2" cy="1" r="1" fill="#22222A"/><circle cx="343.2" cy="1" r="1" fill="#3D43F5"/><circle cx="344.2" cy="11" r="1" fill="#22222A"/><circle cx="354.2" cy="1" r="1" fill="#22222A"/><circle cx="363.2" cy="11" r="1" fill="#22222A"/><circle cx="303.2" cy="1" r="1" fill="#22222A"/><circle cx="221.2" cy="81" r="1" fill="#22222A"/><circle cx="201.2" cy="91" r="1" fill="#22222A"/><circle cx="181.2" cy="91" r="1" fill="#22222A"/><circle cx="191.2" cy="81" r="1" fill="#22222A"/><circle cx="180.2" cy="61" r="1" fill="#22222A"/><circle cx="191.2" cy="61" r="1" fill="#3D43F5"/><circle cx="191.2" cy="51" r="1" fill="#22222A"/><circle cx="191.2" cy="41" r="1" fill="#22222A"/><circle cx="201.2" cy="51" r="1" fill="#22222A"/><circle cx="211.2" cy="51" r="1" fill="#22222A"/><circle cx="221.2" cy="151" r="1" fill="#22222A"/><circle cx="231.2" cy="151" r="1" fill="#22222A"/><circle cx="231.2" cy="161" r="1" fill="#22222A"/><circle cx="231.2" cy="172" r="1" fill="#22222A"/><circle cx="121.2" cy="181" r="1" fill="#22222A"/><circle cx="131.2" cy="181" r="1" fill="#22222A"/><circle cx="141.2" cy="181" r="1" fill="#22222A"/></svg>