<svg xmlns="http://www.w3.org/2000/svg" width="180" height="335" fill="none"><circle cx=".773" cy="333.734" r=".773" fill="#1C1C22"/><circle cx=".773" cy="326.008" r=".773" fill="#1C1C22"/><circle cx="9.27" cy="326.008" r=".773" fill="#1C1C22"/><circle cx="16.223" cy="326.008" r=".773" fill="#1C1C22"/><circle cx="16.223" cy="333.734" r=".773" fill="#1C1C22"/><circle cx="32.446" cy="326.008" r=".773" fill="#1C1C22"/><circle cx="39.399" cy="333.734" r=".773" fill="#1C1C22"/><circle cx="47.124" cy="333.734" r=".773" fill="#1C1C22"/><circle cx="47.124" cy="325.236" r=".773" fill="#1C1C22"/><circle cx="47.124" cy="318.283" r=".773" fill="#1C1C22"/><circle cx="39.399" cy="318.283" r=".773" fill="#1C1C22"/><circle cx="31.674" cy="318.283" r=".773" fill="#1C1C22"/><circle cx="24.721" cy="310.558" r=".773" fill="#1C1C22"/><circle cx="8.498" cy="309.785" r=".773" fill="#1C1C22"/><circle cx="16.223" cy="302.06" r=".773" fill="#1C1C22"/><circle cx="16.223" cy="295.107" r=".773" fill="#1C1C22"/><circle cx="23.949" cy="294.335" r=".773" fill="#1C1C22"/><circle cx="8.498" cy="294.335" r=".773" fill="#1C1C22"/><circle cx=".773" cy="287.382" r=".773" fill="#1C1C22"/><circle cx="8.498" cy="279.657" r=".773" fill="#1C1C22"/><circle cx="16.223" cy="271.931" r=".773" fill="#1C1C22"/><circle cx="31.674" cy="271.931" r=".773" fill="#1C1C22"/><circle cx="40.172" cy="271.931" r=".773" fill="#1C1C22"/><circle cx="40.172" cy="263.434" r=".773" fill="#1C1C22"/><circle cx="31.674" cy="256.481" r=".773" fill="#1C1C22"/><circle cx="23.949" cy="256.481" r=".773" fill="#1C1C22"/><circle cx="7.725" cy="256.481" r=".773" fill="#1C1C22"/><circle cx="16.223" cy="247.983" r=".773" fill="#1C1C22"/><circle cx="23.949" cy="248.755" r=".773" fill="#1C1C22"/><circle cx="30.901" cy="248.755" r=".773" fill="#1C1C22"/><circle cx="62.575" cy="255.708" r=".773" fill="#1C1C22"/><circle cx="71.073" cy="255.708" r=".773" fill="#1C1C22"/><circle cx="62.575" cy="247.983" r=".773" fill="#1C1C22"/><circle cx="54.85" cy="247.983" r=".773" fill="#1C1C22"/><circle cx="40.172" cy="240.257" r=".773" fill="#1C1C22"/><circle cx="23.949" cy="240.257" r=".773" fill="#1C1C22"/><circle cx="40.172" cy="232.532" r=".773" fill="#1C1C22"/><circle cx="54.85" cy="233.305" r=".773" fill="#1C1C22"/><circle cx="54.85" cy="224.807" r=".773" fill="#1C1C22"/><circle cx="47.124" cy="224.807" r=".773" fill="#1C1C22"/><circle cx="31.674" cy="225.579" r=".773" fill="#1C1C22"/><circle cx="31.674" cy="217.854" r=".773" fill="#1C1C22"/><circle cx="23.949" cy="209.356" r=".773" fill="#1C1C22"/><circle cx="32.446" cy="202.403" r=".773" fill="#1C1C22"/><circle cx="40.172" cy="202.403" r=".773" fill="#1C1C22"/><circle cx="39.399" cy="193.905" r=".773" fill="#1C1C22"/><circle cx="39.399" cy="186.18" r=".773" fill="#1C1C22"/><circle cx="31.674" cy="193.905" r=".773" fill="#1C1C22"/><circle cx="31.674" cy="178.455" r=".773" fill="#1C1C22"/><circle cx="31.674" cy="171.502" r=".773" fill="#1C1C22"/><circle cx="40.172" cy="163.777" r=".773" fill="#1C1C22"/><circle cx="54.85" cy="170.73" r=".773" fill="#1C1C22"/><circle cx="55.622" cy="156.051" r=".773" fill="#1C1C22"/><circle cx="55.622" cy="148.326" r=".773" fill="#1C1C22"/><circle cx="54.85" cy="139.828" r=".773" fill="#1C1C22"/><circle cx="47.124" cy="140.601" r=".773" fill="#1C1C22"/><circle cx="47.897" cy="132.876" r=".773" fill="#1C1C22"/><circle cx="55.622" cy="124.378" r=".773" fill="#1C1C22"/><circle cx="55.622" cy="116.652" r=".773" fill="#1C1C22"/><circle cx="61.803" cy="116.652" r=".773" fill="#1C1C22"/><circle cx="70.3" cy="101.974" r=".773" fill="#1C1C22"/><circle cx="47.124" cy="101.202" r=".773" fill="#1C1C22"/><circle cx="47.897" cy="93.477" r=".773" fill="#1C1C22"/><circle cx="55.622" cy="85.751" r=".773" fill="#1C1C22"/><circle cx="62.575" cy="85.751" r=".773" fill="#1C1C22"/><circle cx="80.343" cy="82.661" r=".773" fill="#1C1C22"/><circle cx="89.614" cy="68.755" r=".773" fill="#1C1C22"/><circle cx="91.159" cy="78.798" r=".773" fill="#1C1C22"/><circle cx="117.425" cy="62.575" r=".773" fill="#1C1C22"/><circle cx="125.15" cy="62.575" r=".773" fill="#1C1C22"/><circle cx="132.876" cy="63.348" r=".773" fill="#1C1C22"/><circle cx="148.326" cy="63.348" r=".773" fill="#1C1C22"/><circle cx="139.828" cy="54.077" r=".773" fill="#1C1C22"/><circle cx="140.601" cy="47.897" r=".773" fill="#1C1C22"/><circle cx="132.103" cy="47.897" r=".773" fill="#1C1C22"/><circle cx="116.652" cy="47.125" r=".773" fill="#1C1C22"/><circle cx="125.15" cy="40.172" r=".773" fill="#1C1C22"/><circle cx="132.103" cy="31.674" r=".773" fill="#1C1C22"/><circle cx="140.601" cy="23.948" r=".773" fill="#1C1C22"/><circle cx="155.279" cy="31.674" r=".773" fill="#1C1C22"/><circle cx="163.004" cy="39.399" r=".773" fill="#1C1C22"/><circle cx="171.502" cy="39.399" r=".773" fill="#1C1C22"/><circle cx="171.502" cy="31.674" r=".773" fill="#1C1C22"/><circle cx="179.227" cy="31.674" r=".773" fill="#1C1C22"/><circle cx="163.777" cy="23.948" r=".773" fill="#1C1C22"/><circle cx="163.004" cy="16.996" r=".773" fill="#1C1C22"/><circle cx="155.279" cy="8.498" r=".773" fill="#1C1C22"/><circle cx="155.279" cy=".773" r=".773" fill="#1C1C22"/><circle cx="178.455" cy="1.545" r=".773" fill="#1C1C22"/><circle cx="147.554" cy=".773" r=".773" fill="#1C1C22"/><circle cx="147.554" cy="8.498" r=".773" fill="#1C1C22"/><circle cx="139.828" cy=".773" r=".773" fill="#1C1C22"/><circle cx="132.103" cy="8.498" r=".773" fill="#1C1C22"/><circle cx="155.279" cy="23.948" r=".773" fill="#1C1C22"/><circle cx="163.004" cy="31.674" r=".773" fill="#1C1C22"/><circle cx="148.326" cy="47.897" r=".773" fill="#1C1C22"/><circle cx="93.476" cy="47.897" r=".773" fill="#1C1C22"/><circle cx="108.927" cy="54.85" r=".773" fill="#1C1C22"/><circle cx="64.12" cy="69.528" r=".773" fill="#1C1C22"/><circle cx="70.3" cy="58.712" r=".773" fill="#1C1C22"/><circle cx="94.249" cy="54.85" r=".773" fill="#1C1C22"/><circle cx="78.798" cy="71.845" r=".773" fill="#1C1C22"/><circle cx="71.073" cy="125.15" r=".773" fill="#1C1C22"/><circle cx="47.124" cy="117.425" r=".773" fill="#1C1C22"/><circle cx="47.124" cy="147.554" r=".773" fill="#1C1C22"/><circle cx="40.172" cy="156.824" r=".773" fill="#1C1C22"/><circle cx="31.674" cy="147.554" r=".773" fill="#1C1C22"/><circle cx="24.721" cy="147.554" r=".773" fill="#1C1C22"/><circle cx="31.674" cy="139.828" r=".773" fill="#1C1C22"/><circle cx="23.949" cy="132.103" r=".773" fill="#1C1C22"/><circle cx="16.996" cy="147.554" r=".773" fill="#1C1C22"/><circle cx="47.124" cy="210.129" r=".773" fill="#1C1C22"/><circle cx="47.124" cy="201.631" r=".773" fill="#1C1C22"/><circle cx="54.85" cy="194.678" r=".773" fill="#1C1C22"/><circle cx="62.575" cy="194.678" r=".773" fill="#1C1C22"/><circle cx="70.3" cy="210.129" r=".773" fill="#1C1C22"/><circle cx="78.026" cy="217.854" r=".773" fill="#1C1C22"/><circle cx="86.524" cy="225.579" r=".773" fill="#1C1C22"/><circle cx="94.249" cy="225.579" r=".773" fill="#1C1C22"/><circle cx="101.974" cy="224.807" r=".773" fill="#1C1C22"/><circle cx="101.974" cy="217.082" r=".773" fill="#1C1C22"/><circle cx="94.249" cy="209.356" r=".773" fill="#1C1C22"/><circle cx="78.026" cy="210.129" r=".773" fill="#1C1C22"/><circle cx="78.798" cy="202.403" r=".773" fill="#1C1C22"/><circle cx="86.524" cy="193.905" r=".773" fill="#1C1C22"/><circle cx="101.202" cy="201.631" r=".773" fill="#1C1C22"/><circle cx="109.7" cy="201.631" r=".773" fill="#1C1C22"/><circle cx="108.927" cy="194.678" r=".773" fill="#1C1C22"/><circle cx="108.927" cy="186.953" r=".773" fill="#1C1C22"/><circle cx="101.974" cy="179.228" r=".773" fill="#1C1C22"/><circle cx="93.476" cy="179.228" r=".773" fill="#1C1C22"/><circle cx="78.026" cy="178.455" r=".773" fill="#1C1C22"/><circle cx="78.798" cy="171.502" r=".773" fill="#1C1C22"/><circle cx="78.798" cy="163.777" r=".773" fill="#1C1C22"/><circle cx="85.751" cy="163.777" r=".773" fill="#1C1C22"/><circle cx="85.751" cy="171.502" r=".773" fill="#1C1C22"/><circle cx="93.476" cy="171.502" r=".773" fill="#1C1C22"/><circle cx="101.202" cy="171.502" r=".773" fill="#1C1C22"/><circle cx="108.927" cy="163.004" r=".773" fill="#1C1C22"/><circle cx="125.15" cy="170.73" r=".773" fill="#1C1C22"/><circle cx="132.876" cy="163.777" r=".773" fill="#1C1C22"/><circle cx="125.15" cy="156.051" r=".773" fill="#1C1C22"/><circle cx="109.7" cy="155.279" r=".773" fill="#1C1C22"/><circle cx="116.652" cy="148.326" r=".773" fill="#1C1C22"/><circle cx="124.378" cy="148.326" r=".773" fill="#1C1C22"/><circle cx="132.876" cy="147.554" r=".773" fill="#1C1C22"/><circle cx="147.554" cy="155.279" r=".773" fill="#1C1C22"/><circle cx="141.373" cy="147.554" r=".773" fill="#1C1C22"/><circle cx="140.601" cy="139.828" r=".773" fill="#1C1C22"/><circle cx="125.15" cy="140.601" r=".773" fill="#1C1C22"/><circle cx="116.652" cy="139.828" r=".773" fill="#1C1C22"/><circle cx="101.202" cy="147.554" r=".773" fill="#1C1C22"/><circle cx="85.751" cy="147.554" r=".773" fill="#1C1C22"/><circle cx="93.476" cy="148.326" r=".773" fill="#1C1C22"/><circle cx="101.974" cy="139.828" r=".773" fill="#1C1C22"/><circle cx="116.652" cy="132.876" r=".773" fill="#1C1C22"/><circle cx="132.876" cy="132.876" r=".773" fill="#1C1C22"/><circle cx="156.051" cy="132.876" r=".773" fill="#1C1C22"/><circle cx="156.051" cy="139.828" r=".773" fill="#1C1C22"/><circle cx="163.777" cy="139.828" r=".773" fill="#1C1C22"/><circle cx="93.476" cy="132.103" r=".773" fill="#1C1C22"/><circle cx="94.249" cy="163.004" r=".773" fill="#1C1C22"/><circle cx="125.15" cy="194.678" r=".773" fill="#1C1C22"/><circle cx="101.202" cy="194.678" r=".773" fill="#1C1C22"/><circle cx="23.949" cy="225.579" r=".773" fill="#1C1C22"/><circle cx="16.223" cy="225.579" r=".773" fill="#1C1C22"/><circle cx="7.725" cy="217.082" r=".773" fill="#1C1C22"/><circle cx="8.498" cy="210.129" r=".773" fill="#1C1C22"/><circle cx=".773" cy="209.356" r=".773" fill="#1C1C22"/><circle cx="47.897" cy="217.854" r=".773" fill="#1C1C22"/><circle cx="55.622" cy="217.854" r=".773" fill="#1C1C22"/><circle cx="63.348" cy="225.579" r=".773" fill="#1C1C22"/><circle cx="70.3" cy="232.532" r=".773" fill="#1C1C22"/><circle cx="16.223" cy="240.257" r=".773" fill="#1C1C22"/><circle cx="40.172" cy="279.657" r=".773" fill="#1C1C22"/><circle cx="40.172" cy="286.609" r=".773" fill="#1C1C22"/><circle cx="47.897" cy="286.609" r=".773" fill="#1C1C22"/><circle cx="47.124" cy="279.657" r=".773" fill="#1C1C22"/><circle cx="55.622" cy="278.884" r=".773" fill="#1C1C22"/><circle cx="62.575" cy="279.657" r=".773" fill="#1C1C22"/><circle cx="71.073" cy="279.657" r=".773" fill="#1C1C22"/><circle cx="85.751" cy="278.884" r=".773" fill="#1C1C22"/><circle cx="94.249" cy="279.657" r=".773" fill="#1C1C22"/><circle cx="93.476" cy="287.382" r=".773" fill="#1C1C22"/><circle cx="101.202" cy="287.382" r=".773" fill="#1C1C22"/><circle cx="101.974" cy="278.884" r=".773" fill="#1C1C22"/><circle cx="94.249" cy="271.931" r=".773" fill="#1C1C22"/><circle cx="85.751" cy="271.931" r=".773" fill="#1C1C22"/><circle cx="32.446" cy="279.657" r=".773" fill="#1C1C22"/><circle cx=".773" cy="310.558" r=".773" fill="#1C1C22"/></svg>