<svg xmlns="http://www.w3.org/2000/svg" width="606" height="183" fill="none"><circle cx="1.6" cy="181" r="1" fill="#22222A"/><circle cx="11.6" cy="171" r="1" fill="#22222A"/><circle cx="21.6" cy="171" r="1" fill="#3D43F5"/><circle cx="21.6" cy="161" r="1" fill="#22222A"/><circle cx="41.6" cy="151" r="1" fill="#3D43F5"/><circle cx="51.6" cy="151" r="1" fill="#22222A"/><circle cx="81.6" cy="171" r="1" fill="#22222A"/><circle cx="81.6" cy="181" r="1" fill="#22222A"/><circle cx="92.6" cy="181" r="1" fill="#22222A"/><circle cx="91.6" cy="161" r="1" fill="#22222A"/><circle cx="101.6" cy="161" r="1" fill="#22222A"/><circle cx="111.6" cy="161" r="1" fill="#22222A"/><circle cx="111.6" cy="151" r="1" fill="#22222A"/><circle cx="121.6" cy="171" r="1" fill="#22222A"/><circle cx="131.6" cy="161" r="1" fill="#2D2D39"/><circle cx="141.6" cy="151" r="1" fill="#22222A"/><circle cx="141.6" cy="141" r="1" fill="#22222A"/><circle cx="131.6" cy="131" r="1" fill="#22222A"/><circle cx="121.6" cy="121" r="1" fill="#22222A"/><circle cx="111.6" cy="111" r="1" fill="#22222A"/><circle cx="141.6" cy="121" r="1" fill="#2D2D39"/><circle cx="141.6" cy="110" r="1" fill="#22222A"/><circle cx="141.6" cy="101" r="1" fill="#22222A"/><circle cx="151.6" cy="111" r="1" fill="#22222A"/><circle cx="181.6" cy="151" r="1" fill="#22222A"/><circle cx="191.6" cy="151" r="1" fill="#22222A"/><circle cx="191.6" cy="161" r="1" fill="#22222A"/><circle cx="191.6" cy="171" r="1" fill="#22222A"/><circle cx="201.6" cy="171" r="1" fill="#22222A"/><circle cx="201.6" cy="161" r="1" fill="#22222A"/><circle cx="201.6" cy="141" r="1" fill="#22222A"/><circle cx="201.6" cy="131" r="1" fill="#22222A"/><circle cx="211.6" cy="141" r="1" fill="#22222A"/><circle cx="221.6" cy="141" r="1" fill="#22222A"/><circle cx="221.6" cy="121" r="1" fill="#22222A"/><circle cx="231.6" cy="121" r="1" fill="#3D43F5"/><circle cx="221.6" cy="111" r="1" fill="#22222A"/><circle cx="201.6" cy="111" r="1" fill="#22222A"/><circle cx="201.6" cy="101" r="1" fill="#22222A"/><circle cx="221.6" cy="101" r="1" fill="#22222A"/><circle cx="231.6" cy="91" r="1" fill="#22222A"/><circle cx="231.6" cy="81" r="1" fill="#22222A"/><circle cx="231.6" cy="71" r="1" fill="#22222A"/><circle cx="241.6" cy="61" r="1" fill="#22222A"/><circle cx="251.6" cy="61" r="1" fill="#3D43F5"/><circle cx="241.6" cy="51" r="1" fill="#22222A"/><circle cx="230.6" cy="41" r="1" fill="#22222A"/><circle cx="231.6" cy="32" r="1" fill="#22222A"/><circle cx="241.6" cy="21" r="1" fill="#22222A"/><circle cx="241.6" cy="11" r="1" fill="#3D43F5"/><circle cx="251.6" cy="21" r="1" fill="#22222A"/><circle cx="251.6" cy="31" r="1" fill="#22222A"/><circle cx="261.6" cy="31" r="1" fill="#22222A"/><circle cx="261.6" cy="21" r="1" fill="#22222A"/><circle cx="261.6" cy="61" r="1" fill="#22222A"/><circle cx="271.6" cy="61" r="1" fill="#22222A"/><circle cx="303.6" cy="41" r="1" fill="#22222A"/><circle cx="313.6" cy="51" r="1" fill="#22222A"/><circle cx="324.6" cy="51" r="1" fill="#22222A"/><circle cx="353.6" cy="31" r="1" fill="#22222A"/><circle cx="363.6" cy="41" r="1" fill="#22222A"/><circle cx="373.6" cy="51" r="1" fill="#22222A"/><circle cx="353.6" cy="61" r="1" fill="#22222A"/><circle cx="343.6" cy="60" r="1" fill="#22222A"/><circle cx="353.6" cy="71" r="1" fill="#3D43F5"/><circle cx="363.6" cy="81" r="1" fill="#22222A"/><circle cx="373.6" cy="81" r="1" fill="#22222A"/><circle cx="383.6" cy="81" r="1" fill="#22222A"/><circle cx="373.6" cy="91" r="1" fill="#22222A"/><circle cx="374.6" cy="101" r="1" fill="#22222A"/><circle cx="383.6" cy="101" r="1" fill="#22222A"/><circle cx="393.6" cy="100" r="1" fill="#2D2D39"/><circle cx="404.6" cy="101" r="1" fill="#22222A"/><circle cx="413.6" cy="91" r="1" fill="#22222A"/><circle cx="424.6" cy="91" r="1" fill="#22222A"/><circle cx="424.6" cy="101" r="1" fill="#22222A"/><circle cx="383.6" cy="111" r="1" fill="#22222A"/><circle cx="383.6" cy="122" r="1" fill="#22222A"/><circle cx="394.6" cy="141" r="1" fill="#22222A"/><circle cx="383.6" cy="151" r="1" fill="#22222A"/><circle cx="373.6" cy="151" r="1" fill="#22222A"/><circle cx="373.6" cy="161" r="1" fill="#22222A"/><circle cx="373.6" cy="172" r="1" fill="#3D43F5"/><circle cx="403.6" cy="171" r="1" fill="#22222A"/><circle cx="414.6" cy="171" r="1" fill="#22222A"/><circle cx="413.6" cy="161" r="1" fill="#22222A"/><circle cx="404.6" cy="161" r="1" fill="#22222A"/><circle cx="414.6" cy="151" r="1" fill="#22222A"/><circle cx="403.6" cy="141" r="1" fill="#3D43F5"/><circle cx="424.6" cy="152" r="1" fill="#22222A"/><circle cx="454.6" cy="111" r="1" fill="#22222A"/><circle cx="463.6" cy="102" r="1" fill="#22222A"/><circle cx="463.6" cy="112" r="1" fill="#22222A"/><circle cx="463.6" cy="121" r="1" fill="#22222A"/><circle cx="473.6" cy="131" r="1" fill="#22222A"/><circle cx="484.6" cy="122" r="1" fill="#22222A"/><circle cx="494.6" cy="111" r="1" fill="#3D43F5"/><circle cx="494.6" cy="91" r="1" fill="#22222A"/><circle cx="463.6" cy="141" r="1" fill="#22222A"/><circle cx="464.6" cy="151" r="1" fill="#22222A"/><circle cx="473.6" cy="162" r="1" fill="#22222A"/><circle cx="493.6" cy="162" r="1" fill="#22222A"/><circle cx="503.6" cy="161" r="1" fill="#22222A"/><circle cx="513.6" cy="162" r="1" fill="#22222A"/><circle cx="524.6" cy="172" r="1" fill="#22222A"/><circle cx="525.6" cy="181" r="1" fill="#22222A"/><circle cx="513.6" cy="181" r="1" fill="#22222A"/><circle cx="554.6" cy="152" r="1" fill="#22222A"/><circle cx="564.6" cy="151" r="1" fill="#22222A"/><circle cx="583.6" cy="161" r="1" fill="#22222A"/><circle cx="584.6" cy="171" r="1" fill="#3D43F5"/><circle cx="595.6" cy="171" r="1" fill="#22222A"/><circle cx="604.6" cy="181" r="1" fill="#22222A"/><circle cx="494.6" cy="151" r="1" fill="#22222A"/><circle cx="484.6" cy="172" r="1" fill="#22222A"/><circle cx="483.6" cy="182" r="1" fill="#22222A"/><circle cx="473.6" cy="181" r="1" fill="#22222A"/><circle cx="464.6" cy="181" r="1" fill="#22222A"/><circle cx="383.6" cy="61" r="1" fill="#22222A"/><circle cx="394.6" cy="70" r="1" fill="#22222A"/><circle cx="414.6" cy="72" r="1" fill="#22222A"/><circle cx="413.6" cy="61" r="1" fill="#22222A"/><circle cx="324.6" cy="41" r="1" fill="#2D2D39"/><circle cx="324.6" cy="31" r="1" fill="#22222A"/><circle cx="324.6" cy="21" r="1" fill="#22222A"/><circle cx="333.6" cy="11" r="1" fill="#22222A"/><circle cx="334.6" cy="1" r="1" fill="#22222A"/><circle cx="343.6" cy="1" r="1" fill="#22222A"/><circle cx="344.6" cy="11" r="1" fill="#22222A"/><circle cx="354.6" cy="1" r="1" fill="#3D43F5"/><circle cx="363.6" cy="11" r="1" fill="#22222A"/><circle cx="303.6" cy="1" r="1" fill="#22222A"/><circle cx="221.6" cy="81" r="1" fill="#22222A"/><circle cx="201.6" cy="91" r="1" fill="#22222A"/><circle cx="181.6" cy="91" r="1" fill="#22222A"/><circle cx="191.6" cy="81" r="1" fill="#22222A"/><circle cx="180.6" cy="61" r="1" fill="#3D43F5"/><circle cx="191.6" cy="61" r="1" fill="#22222A"/><circle cx="191.6" cy="51" r="1" fill="#22222A"/><circle cx="191.6" cy="41" r="1" fill="#22222A"/><circle cx="201.6" cy="51" r="1" fill="#22222A"/><circle cx="211.6" cy="51" r="1" fill="#22222A"/><circle cx="221.6" cy="151" r="1" fill="#22222A"/><circle cx="231.6" cy="151" r="1" fill="#22222A"/><circle cx="231.6" cy="161" r="1" fill="#22222A"/><circle cx="231.6" cy="172" r="1" fill="#22222A"/><circle cx="121.6" cy="181" r="1" fill="#22222A"/><circle cx="131.6" cy="181" r="1" fill="#22222A"/><circle cx="141.6" cy="181" r="1" fill="#22222A"/></svg>