<svg xmlns="http://www.w3.org/2000/svg" width="180" height="335" fill="none"><circle cx=".773" cy=".773" r=".773" fill="#1C1C22" transform="matrix(-1 0 0 1 180 332.961)"/><circle cx=".773" cy=".773" r=".773" fill="#1C1C22" transform="matrix(-1 0 0 1 180 325.236)"/><circle cx=".773" cy=".773" r=".773" fill="#1C1C22" transform="matrix(-1 0 0 1 171.502 325.236)"/><circle cx=".773" cy=".773" r=".773" fill="#1C1C22" transform="matrix(-1 0 0 1 164.549 325.236)"/><circle cx=".773" cy=".773" r=".773" fill="#1C1C22" transform="matrix(-1 0 0 1 164.549 332.961)"/><circle cx=".773" cy=".773" r=".773" fill="#1C1C22" transform="matrix(-1 0 0 1 148.326 325.236)"/><circle cx=".773" cy=".773" r=".773" fill="#1C1C22" transform="matrix(-1 0 0 1 141.373 332.961)"/><circle cx=".773" cy=".773" r=".773" fill="#1C1C22" transform="matrix(-1 0 0 1 133.648 332.961)"/><circle cx=".773" cy=".773" r=".773" fill="#1C1C22" transform="matrix(-1 0 0 1 133.648 324.463)"/><circle cx=".773" cy=".773" r=".773" fill="#1C1C22" transform="matrix(-1 0 0 1 133.648 317.511)"/><circle cx=".773" cy=".773" r=".773" fill="#1C1C22" transform="matrix(-1 0 0 1 141.373 317.511)"/><circle cx=".773" cy=".773" r=".773" fill="#1C1C22" transform="matrix(-1 0 0 1 149.099 317.511)"/><circle cx=".773" cy=".773" r=".773" fill="#1C1C22" transform="matrix(-1 0 0 1 156.052 309.785)"/><circle cx=".773" cy=".773" r=".773" fill="#1C1C22" transform="matrix(-1 0 0 1 172.275 309.013)"/><circle cx=".773" cy=".773" r=".773" fill="#1C1C22" transform="matrix(-1 0 0 1 164.549 301.288)"/><circle cx=".773" cy=".773" r=".773" fill="#1C1C22" transform="matrix(-1 0 0 1 164.549 294.335)"/><circle cx=".773" cy=".773" r=".773" fill="#1C1C22" transform="matrix(-1 0 0 1 156.824 293.562)"/><circle cx=".773" cy=".773" r=".773" fill="#1C1C22" transform="matrix(-1 0 0 1 172.275 293.562)"/><circle cx=".773" cy=".773" r=".773" fill="#1C1C22" transform="matrix(-1 0 0 1 180 286.609)"/><circle cx=".773" cy=".773" r=".773" fill="#1C1C22" transform="matrix(-1 0 0 1 172.275 278.884)"/><circle cx=".773" cy=".773" r=".773" fill="#1C1C22" transform="matrix(-1 0 0 1 164.549 271.159)"/><circle cx=".773" cy=".773" r=".773" fill="#1C1C22" transform="matrix(-1 0 0 1 149.099 271.159)"/><circle cx=".773" cy=".773" r=".773" fill="#1C1C22" transform="matrix(-1 0 0 1 140.601 271.159)"/><circle cx=".773" cy=".773" r=".773" fill="#1C1C22" transform="matrix(-1 0 0 1 140.601 262.661)"/><circle cx=".773" cy=".773" r=".773" fill="#1C1C22" transform="matrix(-1 0 0 1 149.099 255.708)"/><circle cx=".773" cy=".773" r=".773" fill="#1C1C22" transform="matrix(-1 0 0 1 156.824 255.708)"/><circle cx=".773" cy=".773" r=".773" fill="#1C1C22" transform="matrix(-1 0 0 1 173.047 255.708)"/><circle cx=".773" cy=".773" r=".773" fill="#1C1C22" transform="matrix(-1 0 0 1 164.549 247.21)"/><circle cx=".773" cy=".773" r=".773" fill="#1C1C22" transform="matrix(-1 0 0 1 156.824 247.983)"/><circle cx=".773" cy=".773" r=".773" fill="#1C1C22" transform="matrix(-1 0 0 1 149.871 247.983)"/><circle cx=".773" cy=".773" r=".773" fill="#1C1C22" transform="matrix(-1 0 0 1 118.198 254.936)"/><circle cx=".773" cy=".773" r=".773" fill="#1C1C22" transform="matrix(-1 0 0 1 109.699 254.936)"/><circle cx=".773" cy=".773" r=".773" fill="#1C1C22" transform="matrix(-1 0 0 1 118.198 247.21)"/><circle cx=".773" cy=".773" r=".773" fill="#1C1C22" transform="matrix(-1 0 0 1 125.923 247.21)"/><circle cx=".773" cy=".773" r=".773" fill="#1C1C22" transform="matrix(-1 0 0 1 140.601 239.485)"/><circle cx=".773" cy=".773" r=".773" fill="#1C1C22" transform="matrix(-1 0 0 1 156.824 239.485)"/><circle cx=".773" cy=".773" r=".773" fill="#1C1C22" transform="matrix(-1 0 0 1 140.601 231.76)"/><circle cx=".773" cy=".773" r=".773" fill="#1C1C22" transform="matrix(-1 0 0 1 125.923 232.532)"/><circle cx=".773" cy=".773" r=".773" fill="#1C1C22" transform="matrix(-1 0 0 1 125.923 224.034)"/><circle cx=".773" cy=".773" r=".773" fill="#1C1C22" transform="matrix(-1 0 0 1 133.648 224.034)"/><circle cx=".773" cy=".773" r=".773" fill="#1C1C22" transform="matrix(-1 0 0 1 149.099 224.807)"/><circle cx=".773" cy=".773" r=".773" fill="#1C1C22" transform="matrix(-1 0 0 1 149.099 217.082)"/><circle cx=".773" cy=".773" r=".773" fill="#1C1C22" transform="matrix(-1 0 0 1 156.824 208.583)"/><circle cx=".773" cy=".773" r=".773" fill="#1C1C22" transform="matrix(-1 0 0 1 148.326 201.631)"/><circle cx=".773" cy=".773" r=".773" fill="#1C1C22" transform="matrix(-1 0 0 1 140.601 201.631)"/><circle cx=".773" cy=".773" r=".773" fill="#1C1C22" transform="matrix(-1 0 0 1 141.373 193.133)"/><circle cx=".773" cy=".773" r=".773" fill="#1C1C22" transform="matrix(-1 0 0 1 141.373 185.408)"/><circle cx=".773" cy=".773" r=".773" fill="#1C1C22" transform="matrix(-1 0 0 1 149.099 193.133)"/><circle cx=".773" cy=".773" r=".773" fill="#1C1C22" transform="matrix(-1 0 0 1 149.099 177.683)"/><circle cx=".773" cy=".773" r=".773" fill="#1C1C22" transform="matrix(-1 0 0 1 149.099 170.729)"/><circle cx=".773" cy=".773" r=".773" fill="#1C1C22" transform="matrix(-1 0 0 1 140.601 163.004)"/><circle cx=".773" cy=".773" r=".773" fill="#1C1C22" transform="matrix(-1 0 0 1 125.923 169.957)"/><circle cx=".773" cy=".773" r=".773" fill="#1C1C22" transform="matrix(-1 0 0 1 125.15 155.279)"/><circle cx=".773" cy=".773" r=".773" fill="#1C1C22" transform="matrix(-1 0 0 1 125.15 147.554)"/><circle cx=".773" cy=".773" r=".773" fill="#1C1C22" transform="matrix(-1 0 0 1 125.923 139.056)"/><circle cx=".773" cy=".773" r=".773" fill="#1C1C22" transform="matrix(-1 0 0 1 133.648 139.828)"/><circle cx=".773" cy=".773" r=".773" fill="#1C1C22" transform="matrix(-1 0 0 1 132.875 132.103)"/><circle cx=".773" cy=".773" r=".773" fill="#1C1C22" transform="matrix(-1 0 0 1 125.15 123.605)"/><circle cx=".773" cy=".773" r=".773" fill="#1C1C22" transform="matrix(-1 0 0 1 125.15 115.88)"/><circle cx=".773" cy=".773" r=".773" fill="#1C1C22" transform="matrix(-1 0 0 1 118.97 115.88)"/><circle cx=".773" cy=".773" r=".773" fill="#1C1C22" transform="matrix(-1 0 0 1 110.472 101.202)"/><circle cx=".773" cy=".773" r=".773" fill="#1C1C22" transform="matrix(-1 0 0 1 133.648 100.429)"/><circle cx=".773" cy=".773" r=".773" fill="#1C1C22" transform="matrix(-1 0 0 1 132.875 92.704)"/><circle cx=".773" cy=".773" r=".773" fill="#1C1C22" transform="matrix(-1 0 0 1 125.15 84.978)"/><circle cx=".773" cy=".773" r=".773" fill="#1C1C22" transform="matrix(-1 0 0 1 118.198 84.978)"/><circle cx=".773" cy=".773" r=".773" fill="#1C1C22" transform="matrix(-1 0 0 1 100.429 81.888)"/><circle cx=".773" cy=".773" r=".773" fill="#1C1C22" transform="matrix(-1 0 0 1 91.159 67.983)"/><circle cx=".773" cy=".773" r=".773" fill="#1C1C22" transform="matrix(-1 0 0 1 89.614 78.026)"/><circle cx=".773" cy=".773" r=".773" fill="#1C1C22" transform="matrix(-1 0 0 1 63.348 61.803)"/><circle cx=".773" cy=".773" r=".773" fill="#1C1C22" transform="matrix(-1 0 0 1 55.622 61.803)"/><circle cx=".773" cy=".773" r=".773" fill="#1C1C22" transform="matrix(-1 0 0 1 47.897 62.575)"/><circle cx=".773" cy=".773" r=".773" fill="#1C1C22" transform="matrix(-1 0 0 1 32.446 62.575)"/><circle cx=".773" cy=".773" r=".773" fill="#1C1C22" transform="matrix(-1 0 0 1 40.944 53.305)"/><circle cx=".773" cy=".773" r=".773" fill="#1C1C22" transform="matrix(-1 0 0 1 40.172 47.124)"/><circle cx=".773" cy=".773" r=".773" fill="#1C1C22" transform="matrix(-1 0 0 1 48.67 47.124)"/><circle cx=".773" cy=".773" r=".773" fill="#1C1C22" transform="matrix(-1 0 0 1 64.12 46.352)"/><circle cx=".773" cy=".773" r=".773" fill="#1C1C22" transform="matrix(-1 0 0 1 55.622 39.399)"/><circle cx=".773" cy=".773" r=".773" fill="#1C1C22" transform="matrix(-1 0 0 1 48.67 30.901)"/><circle cx=".773" cy=".773" r=".773" fill="#1C1C22" transform="matrix(-1 0 0 1 40.172 23.176)"/><circle cx=".773" cy=".773" r=".773" fill="#1C1C22" transform="matrix(-1 0 0 1 25.494 30.901)"/><circle cx=".773" cy=".773" r=".773" fill="#1C1C22" transform="matrix(-1 0 0 1 17.768 38.627)"/><circle cx=".773" cy=".773" r=".773" fill="#1C1C22" transform="matrix(-1 0 0 1 9.27 38.627)"/><circle cx=".773" cy=".773" r=".773" fill="#1C1C22" transform="matrix(-1 0 0 1 9.27 30.901)"/><circle cx=".773" cy=".773" r=".773" fill="#1C1C22" transform="matrix(-1 0 0 1 1.545 30.901)"/><circle cx=".773" cy=".773" r=".773" fill="#1C1C22" transform="matrix(-1 0 0 1 16.996 23.176)"/><circle cx=".773" cy=".773" r=".773" fill="#1C1C22" transform="matrix(-1 0 0 1 17.768 16.223)"/><circle cx=".773" cy=".773" r=".773" fill="#1C1C22" transform="matrix(-1 0 0 1 25.494 7.725)"/><circle cx=".773" cy=".773" r=".773" fill="#1C1C22" transform="matrix(-1 0 0 1 25.494 0)"/><circle cx=".773" cy=".773" r=".773" fill="#1C1C22" transform="matrix(-1 0 0 1 2.318 .772)"/><circle cx=".773" cy=".773" r=".773" fill="#1C1C22" transform="matrix(-1 0 0 1 33.219 0)"/><circle cx=".773" cy=".773" r=".773" fill="#1C1C22" transform="matrix(-1 0 0 1 33.219 7.725)"/><circle cx=".773" cy=".773" r=".773" fill="#1C1C22" transform="matrix(-1 0 0 1 40.944 0)"/><circle cx=".773" cy=".773" r=".773" fill="#1C1C22" transform="matrix(-1 0 0 1 48.67 7.725)"/><circle cx=".773" cy=".773" r=".773" fill="#1C1C22" transform="matrix(-1 0 0 1 25.494 23.176)"/><circle cx=".773" cy=".773" r=".773" fill="#1C1C22" transform="matrix(-1 0 0 1 17.768 30.901)"/><circle cx=".773" cy=".773" r=".773" fill="#1C1C22" transform="matrix(-1 0 0 1 32.446 47.124)"/><circle cx=".773" cy=".773" r=".773" fill="#1C1C22" transform="matrix(-1 0 0 1 87.296 47.124)"/><circle cx=".773" cy=".773" r=".773" fill="#1C1C22" transform="matrix(-1 0 0 1 71.846 54.077)"/><circle cx=".773" cy=".773" r=".773" fill="#1C1C22" transform="matrix(-1 0 0 1 116.652 68.755)"/><circle cx=".773" cy=".773" r=".773" fill="#1C1C22" transform="matrix(-1 0 0 1 110.472 57.94)"/><circle cx=".773" cy=".773" r=".773" fill="#1C1C22" transform="matrix(-1 0 0 1 86.524 54.077)"/><circle cx=".773" cy=".773" r=".773" fill="#1C1C22" transform="matrix(-1 0 0 1 101.974 71.073)"/><circle cx=".773" cy=".773" r=".773" fill="#1C1C22" transform="matrix(-1 0 0 1 109.699 124.378)"/><circle cx=".773" cy=".773" r=".773" fill="#1C1C22" transform="matrix(-1 0 0 1 133.648 116.652)"/><circle cx=".773" cy=".773" r=".773" fill="#1C1C22" transform="matrix(-1 0 0 1 133.648 146.781)"/><circle cx=".773" cy=".773" r=".773" fill="#1C1C22" transform="matrix(-1 0 0 1 140.601 156.051)"/><circle cx=".773" cy=".773" r=".773" fill="#1C1C22" transform="matrix(-1 0 0 1 149.099 146.781)"/><circle cx=".773" cy=".773" r=".773" fill="#1C1C22" transform="matrix(-1 0 0 1 156.052 146.781)"/><circle cx=".773" cy=".773" r=".773" fill="#1C1C22" transform="matrix(-1 0 0 1 149.099 139.056)"/><circle cx=".773" cy=".773" r=".773" fill="#1C1C22" transform="matrix(-1 0 0 1 156.824 131.331)"/><circle cx=".773" cy=".773" r=".773" fill="#1C1C22" transform="matrix(-1 0 0 1 163.777 146.781)"/><circle cx=".773" cy=".773" r=".773" fill="#1C1C22" transform="matrix(-1 0 0 1 133.648 209.356)"/><circle cx=".773" cy=".773" r=".773" fill="#1C1C22" transform="matrix(-1 0 0 1 133.648 200.858)"/><circle cx=".773" cy=".773" r=".773" fill="#1C1C22" transform="matrix(-1 0 0 1 125.923 193.906)"/><circle cx=".773" cy=".773" r=".773" fill="#1C1C22" transform="matrix(-1 0 0 1 118.198 193.906)"/><circle cx=".773" cy=".773" r=".773" fill="#1C1C22" transform="matrix(-1 0 0 1 110.472 209.356)"/><circle cx=".773" cy=".773" r=".773" fill="#1C1C22" transform="matrix(-1 0 0 1 102.747 217.082)"/><circle cx=".773" cy=".773" r=".773" fill="#1C1C22" transform="matrix(-1 0 0 1 94.249 224.807)"/><circle cx=".773" cy=".773" r=".773" fill="#1C1C22" transform="matrix(-1 0 0 1 86.524 224.807)"/><circle cx=".773" cy=".773" r=".773" fill="#1C1C22" transform="matrix(-1 0 0 1 78.798 224.034)"/><circle cx=".773" cy=".773" r=".773" fill="#1C1C22" transform="matrix(-1 0 0 1 78.798 216.309)"/><circle cx=".773" cy=".773" r=".773" fill="#1C1C22" transform="matrix(-1 0 0 1 86.524 208.583)"/><circle cx=".773" cy=".773" r=".773" fill="#1C1C22" transform="matrix(-1 0 0 1 102.747 209.356)"/><circle cx=".773" cy=".773" r=".773" fill="#1C1C22" transform="matrix(-1 0 0 1 101.974 201.631)"/><circle cx=".773" cy=".773" r=".773" fill="#1C1C22" transform="matrix(-1 0 0 1 94.249 193.133)"/><circle cx=".773" cy=".773" r=".773" fill="#1C1C22" transform="matrix(-1 0 0 1 79.57 200.858)"/><circle cx=".773" cy=".773" r=".773" fill="#1C1C22" transform="matrix(-1 0 0 1 71.073 200.858)"/><circle cx=".773" cy=".773" r=".773" fill="#1C1C22" transform="matrix(-1 0 0 1 71.846 193.906)"/><circle cx=".773" cy=".773" r=".773" fill="#1C1C22" transform="matrix(-1 0 0 1 71.846 186.18)"/><circle cx=".773" cy=".773" r=".773" fill="#1C1C22" transform="matrix(-1 0 0 1 78.798 178.455)"/><circle cx=".773" cy=".773" r=".773" fill="#1C1C22" transform="matrix(-1 0 0 1 87.296 178.455)"/><circle cx=".773" cy=".773" r=".773" fill="#1C1C22" transform="matrix(-1 0 0 1 102.747 177.683)"/><circle cx=".773" cy=".773" r=".773" fill="#1C1C22" transform="matrix(-1 0 0 1 101.974 170.729)"/><circle cx=".773" cy=".773" r=".773" fill="#1C1C22" transform="matrix(-1 0 0 1 101.974 163.004)"/><circle cx=".773" cy=".773" r=".773" fill="#1C1C22" transform="matrix(-1 0 0 1 95.022 163.004)"/><circle cx=".773" cy=".773" r=".773" fill="#1C1C22" transform="matrix(-1 0 0 1 95.022 170.729)"/><circle cx=".773" cy=".773" r=".773" fill="#1C1C22" transform="matrix(-1 0 0 1 87.296 170.729)"/><circle cx=".773" cy=".773" r=".773" fill="#1C1C22" transform="matrix(-1 0 0 1 79.57 170.729)"/><circle cx=".773" cy=".773" r=".773" fill="#1C1C22" transform="matrix(-1 0 0 1 71.846 162.232)"/><circle cx=".773" cy=".773" r=".773" fill="#1C1C22" transform="matrix(-1 0 0 1 55.622 169.957)"/><circle cx=".773" cy=".773" r=".773" fill="#1C1C22" transform="matrix(-1 0 0 1 47.897 163.004)"/><circle cx=".773" cy=".773" r=".773" fill="#1C1C22" transform="matrix(-1 0 0 1 55.622 155.279)"/><circle cx=".773" cy=".773" r=".773" fill="#1C1C22" transform="matrix(-1 0 0 1 71.073 154.506)"/><circle cx=".773" cy=".773" r=".773" fill="#1C1C22" transform="matrix(-1 0 0 1 64.12 147.554)"/><circle cx=".773" cy=".773" r=".773" fill="#1C1C22" transform="matrix(-1 0 0 1 56.395 147.554)"/><circle cx=".773" cy=".773" r=".773" fill="#1C1C22" transform="matrix(-1 0 0 1 47.897 146.781)"/><circle cx=".773" cy=".773" r=".773" fill="#1C1C22" transform="matrix(-1 0 0 1 33.219 154.506)"/><circle cx=".773" cy=".773" r=".773" fill="#1C1C22" transform="matrix(-1 0 0 1 39.4 146.781)"/><circle cx=".773" cy=".773" r=".773" fill="#1C1C22" transform="matrix(-1 0 0 1 40.172 139.056)"/><circle cx=".773" cy=".773" r=".773" fill="#1C1C22" transform="matrix(-1 0 0 1 55.622 139.828)"/><circle cx=".773" cy=".773" r=".773" fill="#1C1C22" transform="matrix(-1 0 0 1 64.12 139.056)"/><circle cx=".773" cy=".773" r=".773" fill="#1C1C22" transform="matrix(-1 0 0 1 79.57 146.781)"/><circle cx=".773" cy=".773" r=".773" fill="#1C1C22" transform="matrix(-1 0 0 1 95.022 146.781)"/><circle cx=".773" cy=".773" r=".773" fill="#1C1C22" transform="matrix(-1 0 0 1 87.296 147.554)"/><circle cx=".773" cy=".773" r=".773" fill="#1C1C22" transform="matrix(-1 0 0 1 78.798 139.056)"/><circle cx=".773" cy=".773" r=".773" fill="#1C1C22" transform="matrix(-1 0 0 1 64.12 132.103)"/><circle cx=".773" cy=".773" r=".773" fill="#1C1C22" transform="matrix(-1 0 0 1 47.897 132.103)"/><circle cx=".773" cy=".773" r=".773" fill="#1C1C22" transform="matrix(-1 0 0 1 24.72 132.103)"/><circle cx=".773" cy=".773" r=".773" fill="#1C1C22" transform="matrix(-1 0 0 1 24.72 139.056)"/><circle cx=".773" cy=".773" r=".773" fill="#1C1C22" transform="matrix(-1 0 0 1 16.996 139.056)"/><circle cx=".773" cy=".773" r=".773" fill="#1C1C22" transform="matrix(-1 0 0 1 87.296 131.331)"/><circle cx=".773" cy=".773" r=".773" fill="#1C1C22" transform="matrix(-1 0 0 1 86.524 162.232)"/><circle cx=".773" cy=".773" r=".773" fill="#1C1C22" transform="matrix(-1 0 0 1 55.622 193.906)"/><circle cx=".773" cy=".773" r=".773" fill="#1C1C22" transform="matrix(-1 0 0 1 79.57 193.906)"/><circle cx=".773" cy=".773" r=".773" fill="#1C1C22" transform="matrix(-1 0 0 1 156.824 224.807)"/><circle cx=".773" cy=".773" r=".773" fill="#1C1C22" transform="matrix(-1 0 0 1 164.549 224.807)"/><circle cx=".773" cy=".773" r=".773" fill="#1C1C22" transform="matrix(-1 0 0 1 173.047 216.309)"/><circle cx=".773" cy=".773" r=".773" fill="#1C1C22" transform="matrix(-1 0 0 1 172.275 209.356)"/><circle cx=".773" cy=".773" r=".773" fill="#1C1C22" transform="matrix(-1 0 0 1 180 208.583)"/><circle cx=".773" cy=".773" r=".773" fill="#1C1C22" transform="matrix(-1 0 0 1 132.875 217.082)"/><circle cx=".773" cy=".773" r=".773" fill="#1C1C22" transform="matrix(-1 0 0 1 125.15 217.082)"/><circle cx=".773" cy=".773" r=".773" fill="#1C1C22" transform="matrix(-1 0 0 1 117.425 224.807)"/><circle cx=".773" cy=".773" r=".773" fill="#1C1C22" transform="matrix(-1 0 0 1 110.472 231.76)"/><circle cx=".773" cy=".773" r=".773" fill="#1C1C22" transform="matrix(-1 0 0 1 164.549 239.485)"/><circle cx=".773" cy=".773" r=".773" fill="#1C1C22" transform="matrix(-1 0 0 1 140.601 278.884)"/><circle cx=".773" cy=".773" r=".773" fill="#1C1C22" transform="matrix(-1 0 0 1 140.601 285.837)"/><circle cx=".773" cy=".773" r=".773" fill="#1C1C22" transform="matrix(-1 0 0 1 132.875 285.837)"/><circle cx=".773" cy=".773" r=".773" fill="#1C1C22" transform="matrix(-1 0 0 1 133.648 278.884)"/><circle cx=".773" cy=".773" r=".773" fill="#1C1C22" transform="matrix(-1 0 0 1 125.15 278.112)"/><circle cx=".773" cy=".773" r=".773" fill="#1C1C22" transform="matrix(-1 0 0 1 118.198 278.884)"/><circle cx=".773" cy=".773" r=".773" fill="#1C1C22" transform="matrix(-1 0 0 1 109.699 278.884)"/><circle cx=".773" cy=".773" r=".773" fill="#1C1C22" transform="matrix(-1 0 0 1 95.022 278.112)"/><circle cx=".773" cy=".773" r=".773" fill="#1C1C22" transform="matrix(-1 0 0 1 86.524 278.884)"/><circle cx=".773" cy=".773" r=".773" fill="#1C1C22" transform="matrix(-1 0 0 1 87.296 286.609)"/><circle cx=".773" cy=".773" r=".773" fill="#1C1C22" transform="matrix(-1 0 0 1 79.57 286.609)"/><circle cx=".773" cy=".773" r=".773" fill="#1C1C22" transform="matrix(-1 0 0 1 78.798 278.112)"/><circle cx=".773" cy=".773" r=".773" fill="#1C1C22" transform="matrix(-1 0 0 1 86.524 271.159)"/><circle cx=".773" cy=".773" r=".773" fill="#1C1C22" transform="matrix(-1 0 0 1 95.022 271.159)"/><circle cx=".773" cy=".773" r=".773" fill="#1C1C22" transform="matrix(-1 0 0 1 148.326 278.884)"/><circle cx=".773" cy=".773" r=".773" fill="#1C1C22" transform="matrix(-1 0 0 1 180 309.785)"/></svg>