<svg xmlns="http://www.w3.org/2000/svg" width="40" height="41" fill="none"><g filter="url(#a)"><path fill="#22222A" d="m29.799 10.724-.146 19.008c-.015 1.965-1.597 3.54-3.542 3.525l-11.995-.091c-1.944-.015-3.502-1.613-3.487-3.577l.146-19.009c.015-1.965 1.597-3.539 3.541-3.524l11.995.09c1.945.015 3.503 1.613 3.488 3.578z"/></g><path fill="url(#b)" d="M13.581 29.665c.45.735 1.398.966 2.11.494a1.544 1.544 0 0 0 .488-2.131 1.51 1.51 0 0 0-2.11-.494 1.532 1.532 0 0 0-.488 2.13z"/><path fill="url(#c)" d="M13.581 29.665a1.51 1.51 0 0 0 2.11.494 1.544 1.544 0 0 0 .488-2.131 1.51 1.51 0 0 0-2.11-.494 1.544 1.544 0 0 0-.488 2.13zm.346-.212c-.346-.543-.15-1.251.37-1.585a1.146 1.146 0 0 1 1.57.374c.345.543.15 1.251-.37 1.585-.52.334-1.239.152-1.57-.374z" style="mix-blend-mode:multiply"/><path fill="url(#d)" d="M16.026 28.856c.009-.637-.523-1.142-1.153-1.151a1.134 1.134 0 0 0-1.14 1.165c-.008.636.524 1.142 1.154 1.151.63.009 1.146-.51 1.139-1.165z"/><path fill="url(#e)" d="M14.667 30.09a1.281 1.281 0 0 1-1.015-1.243 1.234 1.234 0 0 1 1.012-1.24l.02 2.467-.017.016z"/><path fill="url(#f)" d="m15.131 30.087-.02-2.467c.573.122 1.005.621.998 1.225a1.234 1.234 0 0 1-1.01 1.24l.032.002z"/><path fill="#2C2E32" d="m14.666 30.09.04-.098-.016-2.283-.044-.087.02 2.468z"/><path fill="#5D636C" d="m15.132 30.088-.027-.103-.034-2.267.057-.113.004 2.483z"/><path fill="url(#g)" d="M24.012 29.09a1.54 1.54 0 0 0 1.668 1.387c.836-.078 1.45-.842 1.373-1.686-.078-.844-.834-1.465-1.684-1.405-.836.078-1.45.841-1.373 1.686l.016.017z"/><path fill="url(#h)" d="M24.012 29.09a1.54 1.54 0 0 0 1.668 1.387c.836-.078 1.45-.842 1.373-1.686a1.54 1.54 0 0 0-1.669-1.387c-.835.078-1.45.841-1.372 1.685zm.383-.025a1.14 1.14 0 0 1 1.029-1.256 1.136 1.136 0 0 1 1.243 1.04 1.14 1.14 0 0 1-1.029 1.256 1.136 1.136 0 0 1-1.243-1.04z" style="mix-blend-mode:multiply"/><path fill="url(#i)" d="M26.58 29.43c.286-.568.032-1.256-.53-1.546-.562-.29-1.243-.033-1.53.535-.286.567-.032 1.256.53 1.545.562.29 1.243.034 1.53-.534z"/><path fill="url(#j)" d="M24.804 29.931c-.474-.367-.648-1-.38-1.552a1.247 1.247 0 0 1 1.455-.657l-1.06 2.227-.015-.018z"/><path fill="url(#k)" d="m25.238 30.145 1.059-2.227c.459.35.63 1.015.38 1.552a1.267 1.267 0 0 1-1.44.675z"/><path fill="#2C2E32" d="m24.803 29.931.07-.062.999-2.047-.01-.118-1.059 2.227z"/><path fill="#5D636C" d="m25.238 30.145.006-.1.98-2.031.089-.078-1.075 2.209z"/><path fill="url(#l)" d="M13.904 12.456a1.5 1.5 0 0 0 2.171.062c.62-.579.668-1.565.061-2.193a1.501 1.501 0 0 0-2.17-.063 1.539 1.539 0 0 0-.062 2.194z"/><path fill="url(#m)" d="M13.905 12.456a1.5 1.5 0 0 0 2.17.063c.62-.58.65-1.55.062-2.194a1.501 1.501 0 0 0-2.171-.062c-.62.579-.65 1.55-.061 2.193zm.3-.265c-.417-.48-.404-1.184.056-1.623.476-.421 1.172-.408 1.607.058.417.48.403 1.185-.057 1.623-.476.421-1.172.408-1.607-.058z" style="mix-blend-mode:multiply"/><path fill="url(#n)" d="M16.13 11.18c-.125-.612-.73-1.022-1.335-.895a1.154 1.154 0 0 0-.886 1.35c.126.612.73 1.021 1.336.895a1.153 1.153 0 0 0 .886-1.35z"/><path fill="url(#o)" d="M15.02 12.665a1.252 1.252 0 0 1-1.246-1.006 1.249 1.249 0 0 1 .74-1.41l.488 2.432.018-.015z"/><path fill="url(#p)" d="m15.51 12.547-.488-2.431a1.255 1.255 0 0 1 1.23.989 1.239 1.239 0 0 1-.74 1.41l-.002.032z"/><path fill="#2C2E32" d="m15.02 12.665.025-.115-.435-2.227-.077-.09.488 2.432z"/><path fill="#5D636C" d="m15.51 12.547-.062-.071-.452-2.212.024-.115.49 2.398z"/><path fill="url(#q)" d="M24.201 11.905a1.504 1.504 0 0 0 1.89 1.067 1.523 1.523 0 0 0 1.054-1.908 1.537 1.537 0 0 0-1.904-1.085c-.829.23-1.3 1.087-1.073 1.924l.033.002z"/><path fill="url(#r)" d="M24.201 11.905a1.504 1.504 0 0 0 1.89 1.067 1.523 1.523 0 0 0 1.054-1.908 1.504 1.504 0 0 0-1.889-1.067 1.523 1.523 0 0 0-1.055 1.908zm.373-.109a1.18 1.18 0 0 1 .79-1.423c.608-.16 1.232.2 1.409.8a1.18 1.18 0 0 1-.79 1.423c-.61.16-1.233-.2-1.41-.8z" style="mix-blend-mode:multiply"/><path fill="url(#s)" d="M26.782 11.794a1.13 1.13 0 0 0-.787-1.412 1.115 1.115 0 0 0-1.397.795 1.13 1.13 0 0 0 .787 1.412 1.142 1.142 0 0 0 1.413-.777l-.015-.018z"/><path fill="url(#t)" d="M25.118 12.605a1.32 1.32 0 0 1-.65-1.47 1.24 1.24 0 0 1 1.304-.902l-.671 2.387.017-.015z"/><path fill="url(#u)" d="m25.574 12.736.654-2.372c.514.27.79.875.635 1.452a1.24 1.24 0 0 1-1.304.902l.015.018z"/><path fill="#2C2E32" d="m25.12 12.605.072-.096.607-2.174-.008-.118-.672 2.388z"/><path fill="#5D636C" d="m25.575 12.736-.01-.118.608-2.174.089-.078-.687 2.37z"/><defs><radialGradient id="c" cx="0" cy="0" r="1" gradientTransform="matrix(-1.26345 -.8595 .8625 -1.26786 14.908 28.847)" gradientUnits="userSpaceOnUse"><stop offset=".83" stop-color="#1D1E21"/><stop offset=".86" stop-color="#3C3F44"/><stop offset=".9" stop-color="#565B63"/><stop offset=".94" stop-color="#6A707A"/><stop offset=".97" stop-color="#767C87"/><stop offset="1" stop-color="#7A818C"/></radialGradient><radialGradient id="d" cx="0" cy="0" r="1" gradientTransform="matrix(1.14795 -.00388 .00392 1.15996 14.87 28.841)" gradientUnits="userSpaceOnUse"><stop offset=".56" stop-color="#383B40"/><stop offset=".81" stop-color="#36393E"/><stop offset=".9" stop-color="#303237"/><stop offset=".96" stop-color="#26272B"/><stop offset="1" stop-color="#1D1E21"/></radialGradient><radialGradient id="e" cx="0" cy="0" r="1" gradientTransform="matrix(2.03818 -.0069 .00697 2.0595 14.192 29.27)" gradientUnits="userSpaceOnUse"><stop stop-color="#7A818C"/><stop offset="1" stop-color="#202225"/></radialGradient><radialGradient id="f" cx="0" cy="0" r="1" gradientTransform="matrix(1.99134 -.00674 .00681 2.01216 14.356 29.268)" gradientUnits="userSpaceOnUse"><stop stop-color="#7A818C"/><stop offset="1" stop-color="#202225"/></radialGradient><radialGradient id="h" cx="0" cy="0" r="1" gradientTransform="matrix(-1.26345 -.8595 .8625 -1.26786 25.557 28.926)" gradientUnits="userSpaceOnUse"><stop offset=".83" stop-color="#1D1E21"/><stop offset=".86" stop-color="#3C3F44"/><stop offset=".9" stop-color="#565B63"/><stop offset=".94" stop-color="#6A707A"/><stop offset=".97" stop-color="#767C87"/><stop offset="1" stop-color="#7A818C"/></radialGradient><radialGradient id="i" cx="0" cy="0" r="1" gradientTransform="matrix(1.03236 .50773 -.51082 1.03863 25.501 28.899)" gradientUnits="userSpaceOnUse"><stop offset=".56" stop-color="#383B40"/><stop offset=".81" stop-color="#36393E"/><stop offset=".9" stop-color="#303237"/><stop offset=".96" stop-color="#26272B"/><stop offset="1" stop-color="#1D1E21"/></radialGradient><radialGradient id="j" cx="0" cy="0" r="1" gradientTransform="matrix(1.8331 .90156 -.90703 1.84422 24.686 28.972)" gradientUnits="userSpaceOnUse"><stop stop-color="#7A818C"/><stop offset="1" stop-color="#202225"/></radialGradient><radialGradient id="k" cx="0" cy="0" r="1" gradientTransform="matrix(1.79095 .88083 -.88618 1.80183 24.853 29.055)" gradientUnits="userSpaceOnUse"><stop stop-color="#7A818C"/><stop offset="1" stop-color="#202225"/></radialGradient><radialGradient id="m" cx="0" cy="0" r="1" gradientTransform="matrix(-1.26345 -.8595 .8625 -1.26786 15.048 11.388)" gradientUnits="userSpaceOnUse"><stop offset=".83" stop-color="#1D1E21"/><stop offset=".86" stop-color="#3C3F44"/><stop offset=".9" stop-color="#565B63"/><stop offset=".94" stop-color="#6A707A"/><stop offset=".97" stop-color="#767C87"/><stop offset="1" stop-color="#7A818C"/></radialGradient><radialGradient id="n" cx="0" cy="0" r="1" gradientTransform="matrix(1.12458 -.23249 .23476 1.13556 15.064 11.35)" gradientUnits="userSpaceOnUse"><stop offset=".56" stop-color="#383B40"/><stop offset=".81" stop-color="#36393E"/><stop offset=".9" stop-color="#303237"/><stop offset=".96" stop-color="#26272B"/><stop offset="1" stop-color="#1D1E21"/></radialGradient><radialGradient id="o" cx="0" cy="0" r="1" gradientTransform="matrix(1.9966 -.41276 .4168 2.0161 14.46 11.91)" gradientUnits="userSpaceOnUse"><stop stop-color="#7A818C"/><stop offset="1" stop-color="#202225"/></radialGradient><radialGradient id="p" cx="0" cy="0" r="1" gradientTransform="matrix(1.9507 -.40327 .40721 1.96976 14.62 11.877)" gradientUnits="userSpaceOnUse"><stop stop-color="#7A818C"/><stop offset="1" stop-color="#202225"/></radialGradient><radialGradient id="r" cx="0" cy="0" r="1" gradientTransform="matrix(-1.26345 -.8595 .8625 -1.26786 25.698 11.468)" gradientUnits="userSpaceOnUse"><stop offset=".83" stop-color="#1D1E21"/><stop offset=".86" stop-color="#3C3F44"/><stop offset=".9" stop-color="#565B63"/><stop offset=".94" stop-color="#6A707A"/><stop offset=".97" stop-color="#767C87"/><stop offset="1" stop-color="#7A818C"/></radialGradient><radialGradient id="s" cx="0" cy="0" r="1" gradientTransform="matrix(1.10402 .31833 -.32108 1.11355 25.723 11.43)" gradientUnits="userSpaceOnUse"><stop offset=".56" stop-color="#383B40"/><stop offset=".81" stop-color="#36393E"/><stop offset=".9" stop-color="#303237"/><stop offset=".96" stop-color="#26272B"/><stop offset="1" stop-color="#1D1E21"/></radialGradient><radialGradient id="t" cx="0" cy="0" r="1" gradientTransform="matrix(1.96027 .56522 -.5701 1.9772 24.93 11.646)" gradientUnits="userSpaceOnUse"><stop stop-color="#7A818C"/><stop offset="1" stop-color="#202225"/></radialGradient><radialGradient id="u" cx="0" cy="0" r="1" gradientTransform="matrix(1.91522 .55223 -.557 1.93175 25.088 11.691)" gradientUnits="userSpaceOnUse"><stop stop-color="#7A818C"/><stop offset="1" stop-color="#202225"/></radialGradient><linearGradient id="b" x1="13.434" x2="16.394" y1="28.363" y2="29.175" gradientUnits="userSpaceOnUse"><stop stop-color="#646A73"/><stop offset="1" stop-color="#BDC8D9"/></linearGradient><linearGradient id="g" x1="24.355" x2="26.692" y1="27.807" y2="29.841" gradientUnits="userSpaceOnUse"><stop stop-color="#646A73"/><stop offset="1" stop-color="#BDC8D9"/></linearGradient><linearGradient id="l" x1="13.48" x2="16.572" y1="11.313" y2="11.532" gradientUnits="userSpaceOnUse"><stop stop-color="#646A73"/><stop offset="1" stop-color="#BDC8D9"/></linearGradient><linearGradient id="q" x1="24.264" x2="26.92" y1="10.712" y2="12.329" gradientUnits="userSpaceOnUse"><stop stop-color="#646A73"/><stop offset="1" stop-color="#BDC8D9"/></linearGradient><filter id="a" width="31.169" height="38.201" x="8.629" y="1.056" color-interpolation-filters="sRGB" filterUnits="userSpaceOnUse"><feFlood flood-opacity="0" result="BackgroundImageFix"/><feColorMatrix in="SourceAlpha" result="hardAlpha" values="0 0 0 0 0 0 0 0 0 0 0 0 0 0 0 0 0 0 127 0"/><feOffset dx="4"/><feGaussianBlur stdDeviation="3"/><feComposite in2="hardAlpha" operator="out"/><feColorMatrix values="0 0 0 0 0 0 0 0 0 0 0 0 0 0 0 0 0 0 0.5 0"/><feBlend in2="BackgroundImageFix" result="effect1_dropShadow_497_19754"/><feBlend in="SourceGraphic" in2="effect1_dropShadow_497_19754" result="shape"/></filter></defs></svg>