<svg xmlns="http://www.w3.org/2000/svg" width="605" height="183" fill="none"><circle cx="1" cy="181" r="1" fill="#22222A"/><circle cx="11" cy="171" r="1" fill="#3D43F5"/><circle cx="21" cy="171" r="1" fill="#22222A"/><circle cx="21" cy="161" r="1" fill="#22222A"/><circle cx="41" cy="151" r="1" fill="#3D43F5"/><circle cx="51" cy="151" r="1" fill="#22222A"/><circle cx="81" cy="171" r="1" fill="#22222A"/><circle cx="81" cy="181" r="1" fill="#22222A"/><circle cx="92" cy="181" r="1" fill="#22222A"/><circle cx="91" cy="161" r="1" fill="#22222A"/><circle cx="101" cy="161" r="1" fill="#3D43F5"/><circle cx="111" cy="161" r="1" fill="#22222A"/><circle cx="111" cy="151" r="1" fill="#22222A"/><circle cx="121" cy="171" r="1" fill="#22222A"/><circle cx="131" cy="161" r="1" fill="#2D2D39"/><circle cx="141" cy="151" r="1" fill="#3D43F5"/><circle cx="141" cy="141" r="1" fill="#22222A"/><circle cx="131" cy="131" r="1" fill="#22222A"/><circle cx="121" cy="121" r="1" fill="#22222A"/><circle cx="111" cy="111" r="1" fill="#3D43F5"/><circle cx="141" cy="121" r="1" fill="#2D2D39"/><circle cx="141" cy="110" r="1" fill="#3D43F5"/><circle cx="141" cy="101" r="1" fill="#22222A"/><circle cx="151" cy="111" r="1" fill="#22222A"/><circle cx="181" cy="151" r="1" fill="#22222A"/><circle cx="191" cy="151" r="1" fill="#22222A"/><circle cx="191" cy="161" r="1" fill="#22222A"/><circle cx="191" cy="171" r="1" fill="#22222A"/><circle cx="201" cy="171" r="1" fill="#22222A"/><circle cx="201" cy="161" r="1" fill="#22222A"/><circle cx="201" cy="141" r="1" fill="#22222A"/><circle cx="201" cy="131" r="1" fill="#22222A"/><circle cx="211" cy="141" r="1" fill="#3D43F5"/><circle cx="221" cy="141" r="1" fill="#22222A"/><circle cx="221" cy="121" r="1" fill="#22222A"/><circle cx="231" cy="121" r="1" fill="#22222A"/><circle cx="221" cy="111" r="1" fill="#22222A"/><circle cx="201" cy="111" r="1" fill="#22222A"/><circle cx="201" cy="101" r="1" fill="#22222A"/><circle cx="221" cy="101" r="1" fill="#22222A"/><circle cx="231" cy="91" r="1" fill="#3D43F5"/><circle cx="231" cy="81" r="1" fill="#22222A"/><circle cx="231" cy="71" r="1" fill="#22222A"/><circle cx="241" cy="61" r="1" fill="#22222A"/><circle cx="251" cy="61" r="1" fill="#22222A"/><circle cx="241" cy="51" r="1" fill="#22222A"/><circle cx="230" cy="41" r="1" fill="#3D43F5"/><circle cx="231" cy="32" r="1" fill="#22222A"/><circle cx="241" cy="21" r="1" fill="#22222A"/><circle cx="241" cy="11" r="1" fill="#22222A"/><circle cx="251" cy="21" r="1" fill="#22222A"/><circle cx="251" cy="31" r="1" fill="#22222A"/><circle cx="261" cy="31" r="1" fill="#3D43F5"/><circle cx="261" cy="21" r="1" fill="#22222A"/><circle cx="261" cy="61" r="1" fill="#22222A"/><circle cx="271" cy="61" r="1" fill="#22222A"/><circle cx="303" cy="41" r="1" fill="#22222A"/><circle cx="313" cy="51" r="1" fill="#22222A"/><circle cx="324" cy="51" r="1" fill="#22222A"/><circle cx="353" cy="31" r="1" fill="#22222A"/><circle cx="363" cy="41" r="1" fill="#22222A"/><circle cx="373" cy="51" r="1" fill="#22222A"/><circle cx="353" cy="61" r="1" fill="#22222A"/><circle cx="343" cy="60" r="1" fill="#22222A"/><circle cx="353" cy="71" r="1" fill="#3D43F5"/><circle cx="363" cy="81" r="1" fill="#22222A"/><circle cx="373" cy="81" r="1" fill="#22222A"/><circle cx="383" cy="81" r="1" fill="#22222A"/><circle cx="373" cy="91" r="1" fill="#22222A"/><circle cx="374" cy="101" r="1" fill="#22222A"/><circle cx="383" cy="101" r="1" fill="#22222A"/><circle cx="393" cy="100" r="1" fill="#3D43F5"/><circle cx="404" cy="101" r="1" fill="#22222A"/><circle cx="413" cy="91" r="1" fill="#22222A"/><circle cx="424" cy="91" r="1" fill="#22222A"/><circle cx="424" cy="101" r="1" fill="#3D43F5"/><circle cx="383" cy="111" r="1" fill="#22222A"/><circle cx="383" cy="122" r="1" fill="#22222A"/><circle cx="394" cy="141" r="1" fill="#3D43F5"/><circle cx="383" cy="151" r="1" fill="#22222A"/><circle cx="373" cy="151" r="1" fill="#3D43F5"/><circle cx="373" cy="161" r="1" fill="#22222A"/><circle cx="373" cy="172" r="1" fill="#22222A"/><circle cx="403" cy="171" r="1" fill="#22222A"/><circle cx="414" cy="171" r="1" fill="#22222A"/><circle cx="413" cy="161" r="1" fill="#3D43F5"/><circle cx="404" cy="161" r="1" fill="#22222A"/><circle cx="414" cy="151" r="1" fill="#22222A"/><circle cx="403" cy="141" r="1" fill="#22222A"/><circle cx="424" cy="152" r="1" fill="#22222A"/><circle cx="454" cy="111" r="1" fill="#22222A"/><circle cx="463" cy="102" r="1" fill="#22222A"/><circle cx="463" cy="112" r="1" fill="#22222A"/><circle cx="463" cy="121" r="1" fill="#22222A"/><circle cx="473" cy="131" r="1" fill="#22222A"/><circle cx="484" cy="122" r="1" fill="#22222A"/><circle cx="494" cy="111" r="1" fill="#22222A"/><circle cx="494" cy="91" r="1" fill="#22222A"/><circle cx="463" cy="141" r="1" fill="#22222A"/><circle cx="464" cy="151" r="1" fill="#22222A"/><circle cx="473" cy="162" r="1" fill="#22222A"/><circle cx="493" cy="162" r="1" fill="#3D43F5"/><circle cx="503" cy="161" r="1" fill="#22222A"/><circle cx="513" cy="162" r="1" fill="#22222A"/><circle cx="524" cy="172" r="1" fill="#22222A"/><circle cx="525" cy="181" r="1" fill="#22222A"/><circle cx="513" cy="181" r="1" fill="#22222A"/><circle cx="554" cy="152" r="1" fill="#3D43F5"/><circle cx="564" cy="151" r="1" fill="#22222A"/><circle cx="583" cy="161" r="1" fill="#22222A"/><circle cx="584" cy="171" r="1" fill="#22222A"/><circle cx="595" cy="171" r="1" fill="#22222A"/><circle cx="604" cy="181" r="1" fill="#22222A"/><circle cx="494" cy="151" r="1" fill="#22222A"/><circle cx="484" cy="172" r="1" fill="#22222A"/><circle cx="483" cy="182" r="1" fill="#22222A"/><circle cx="473" cy="181" r="1" fill="#22222A"/><circle cx="464" cy="181" r="1" fill="#22222A"/><circle cx="383" cy="61" r="1" fill="#22222A"/><circle cx="394" cy="70" r="1" fill="#22222A"/><circle cx="414" cy="72" r="1" fill="#22222A"/><circle cx="413" cy="61" r="1" fill="#22222A"/><circle cx="324" cy="41" r="1" fill="#3D43F5"/><circle cx="324" cy="31" r="1" fill="#22222A"/><circle cx="324" cy="21" r="1" fill="#22222A"/><circle cx="333" cy="11" r="1" fill="#22222A"/><circle cx="334" cy="1" r="1" fill="#22222A"/><circle cx="343" cy="1" r="1" fill="#22222A"/><circle cx="344" cy="11" r="1" fill="#22222A"/><circle cx="354" cy="1" r="1" fill="#22222A"/><circle cx="363" cy="11" r="1" fill="#3D43F5"/><circle cx="303" cy="1" r="1" fill="#3D43F5"/><circle cx="221" cy="81" r="1" fill="#22222A"/><circle cx="201" cy="91" r="1" fill="#22222A"/><circle cx="181" cy="91" r="1" fill="#22222A"/><circle cx="191" cy="81" r="1" fill="#22222A"/><circle cx="180" cy="61" r="1" fill="#22222A"/><circle cx="191" cy="61" r="1" fill="#22222A"/><circle cx="191" cy="51" r="1" fill="#22222A"/><circle cx="191" cy="41" r="1" fill="#3D43F5"/><circle cx="201" cy="51" r="1" fill="#22222A"/><circle cx="211" cy="51" r="1" fill="#22222A"/><circle cx="221" cy="151" r="1" fill="#22222A"/><circle cx="231" cy="151" r="1" fill="#22222A"/><circle cx="231" cy="161" r="1" fill="#22222A"/><circle cx="231" cy="172" r="1" fill="#22222A"/><circle cx="121" cy="181" r="1" fill="#22222A"/><circle cx="131" cy="181" r="1" fill="#22222A"/><circle cx="141" cy="181" r="1" fill="#22222A"/></svg>